<?xml version="1.0" encoding="utf-8"?>
<!-- Generator: Adobe Illustrator 16.0.4, SVG Export Plug-In . SVG Version: 6.00 Build 0)  -->
<!DOCTYPE svg PUBLIC "-//W3C//DTD SVG 1.1//EN" "http://www.w3.org/Graphics/SVG/1.1/DTD/svg11.dtd">
<svg version="1.1" xmlns="http://www.w3.org/2000/svg" xmlns:xlink="http://www.w3.org/1999/xlink" x="0px" y="0px"
	 width="459.33px" height="314.362px" viewBox="0 0 459.33 314.362" enable-background="new 0 0 459.33 314.362"
	 xml:space="preserve">
<symbol  id="Background_1_" viewBox="-229.468 -133.982 458.936 267.965">
	<polygon id="Scene_14_" fill="#8C8C8C" fill-opacity="0.1" stroke="#A6A6A6" stroke-miterlimit="10" points="-228.968,44.157 
		-210.08,38.08 -180.08,46.746 -150.08,92.08 -91.414,83.413 -73.414,13.079 -37.08,-39.435 21.455,-14.643 43.872,-24.042 
		82.156,-16.022 88.427,1.8 107.325,75.496 132.381,121.811 178.586,133.413 215.92,78.746 228.968,17.228 228.968,-133.482 
		-228.968,-133.482 	"/>
</symbol>
<g id="_x31_">
	<g id="Symbols">
	</g>
</g>
<g id="_x32_">
</g>
<g id="_x33_">
</g>
<g id="_x34_">
</g>
<g id="_x35_">
</g>
<g id="_x36_">
</g>
<g id="_x37_">
</g>
<g id="_x38_">
</g>
<g id="_x39_">
	<g id="Background">
	</g>
</g>
<g id="_x31_0">
</g>
<g id="_x31_1">
</g>
<g id="_x31_2">
</g>
<g id="_x31_3">
	
		<use xlink:href="#Background_1_"  width="458.936" height="267.965" id="XMLID_5_" x="-229.468" y="-133.982" transform="matrix(1 0 0 -1 229.665 180.3896)" overflow="visible"/>
	<g>
		<g>
			<line fill="none" stroke="#175E99" stroke-width="3" x1="229.606" y1="203.798" x2="194.94" y2="122.297"/>
			<g>
				<path fill="#175E99" d="M191.397,113.967c3.122,3.301,7.672,7.109,11.583,9.006l-7.574,0.418l-5.554,5.166
					C191.199,124.424,191.611,118.505,191.397,113.967z"/>
			</g>
		</g>
	</g>
	<text transform="matrix(1 0 0 1 180.9473 106.6079)" fill="#175E99" font-family="'CMMI10'" font-size="24">n</text>
	<text transform="matrix(1 0 0 1 310.2529 145.1538)" fill="#1D9917" font-family="'CMMI10'" font-size="24">v</text>
	<text transform="matrix(1 0 0 1 151.0723 126.7329)" fill="#1D9917" font-family="'CMMI10'" font-size="24">v</text>
	<text transform="matrix(1 0 0 1 161.4219 166.9106)" fill="#1D9917" font-family="'CMMI10'" font-size="24">v</text>
	<text transform="matrix(1 0 0 1 186.4453 200.2837)" fill="#1D9917" font-family="'CMMI10'" font-size="24">v</text>
	<g>
		<g>
			<path fill="none" stroke="#175E99" stroke-width="2" d="M350.371,152.897l2.763-1.169c-0.391-0.923-0.791-1.84-1.2-2.75"/>
			<path fill="none" stroke="#175E99" stroke-width="2" stroke-dasharray="6.0329,8.0439" d="M348.422,141.739
				c-32.09-61.418-106.514-88.886-171.453-61.403c-66.193,28.014-98.261,102.851-73.963,169.63"/>
			<path fill="none" stroke="#175E99" stroke-width="2" d="M104.436,253.725c0.369,0.927,0.749,1.853,1.14,2.776l2.763-1.169"/>
			
				<line fill="none" stroke="#175E99" stroke-width="2" stroke-dasharray="6.065,8.0867" x1="115.785" y1="252.18" x2="346.647" y2="154.473"/>
		</g>
	</g>
	<g>
		<rect x="139.967" y="117.095" fill="#1D9917" width="9.641" height="9.639"/>
		<rect x="251.235" y="191.552" fill="#611327" width="9.641" height="9.639"/>
		<rect x="279.684" y="196.371" fill="#611327" width="9.641" height="9.639"/>
		<rect x="304.339" y="191.552" fill="#611327" width="9.641" height="9.639"/>
		<rect x="322.831" y="136.648" fill="#1D9917" width="9.641" height="9.639"/>
		<rect x="151.64" y="162.52" fill="#1D9917" width="9.641" height="9.641"/>
		<rect x="178.35" y="199.574" fill="#1D9917" width="9.641" height="9.641"/>
		<rect x="205.115" y="207.97" fill="#611327" width="9.641" height="9.641"/>
	</g>
	<g>
		<g>
			<polyline fill="none" stroke="#1D9917" stroke-width="2" points="153.941,130.933 229.606,204.253 317.706,149.474 			"/>
			<g>
				<path fill="#1D9917" d="M149.607,126.733c1.307,2.733,2.586,6.476,2.828,9.363l2.074-4.612l4.545-2.218
					C156.161,129.114,152.379,127.954,149.607,126.733z"/>
			</g>
			<g>
				<path fill="#1D9917" d="M322.831,146.287c-1.855,2.395-3.898,5.782-4.747,8.552l-1.051-4.947l-3.972-3.129
					C315.922,147.227,319.863,146.893,322.831,146.287z"/>
			</g>
		</g>
	</g>
	<g>
		<g>
			<polyline fill="none" stroke="#1D9917" stroke-width="2" points="166.649,171.948 229.606,204.253 194.025,203.855 			"/>
			<g>
				<path fill="#1D9917" d="M161.28,169.192c2.046,2.234,4.359,5.442,5.434,8.133l0.641-5.017l3.701-3.445
					C168.243,169.562,164.287,169.552,161.28,169.192z"/>
			</g>
			<g>
				<path fill="#1D9917" d="M187.99,203.788c2.852-1.022,6.395-2.78,8.6-4.66l-1.773,4.736l1.668,4.774
					C194.321,206.709,190.818,204.873,187.99,203.788z"/>
			</g>
		</g>
	</g>
	<circle id="Point_8_" cx="229.606" cy="204.263" r="4.283"/>
	<rect x="238.044" y="201.2" fill="none" width="26.667" height="27.334"/>
	<text transform="matrix(1 0 0 1 238.043 215.7646)" font-family="'CMBX10'" font-size="21">p</text>
</g>
<g id="_x31_4">
</g>
<g id="_x31_5">
</g>
</svg>
